<svg width="109" height="38" viewBox="0 0 109 38" fill="none" xmlns="http://www.w3.org/2000/svg">
<path fill-rule="evenodd" clip-rule="evenodd" d="M106.671 4.69606C105.565 4.69606 104.664 3.79347 104.664 2.68327C104.664 1.57307 105.565 0.66937 106.671 0.66937C107.779 0.66937 108.679 1.57307 108.679 2.68327C108.679 3.79347 107.779 4.69606 106.671 4.69606ZM106.671 0.347412C105.387 0.347412 104.341 1.39544 104.341 2.68327C104.341 3.9711 105.387 5.01913 106.671 5.01913C107.956 5.01913 109 3.9711 109 2.68327C109 1.39544 107.956 0.347412 106.671 0.347412Z" fill="white"/>
<path fill-rule="evenodd" clip-rule="evenodd" d="M107.364 3.19417L107.363 3.19306C107.325 3.13977 107.276 3.10868 107.215 3.09869C107.155 3.0887 107.102 3.10202 107.05 3.13644C106.998 3.17419 106.967 3.22415 106.956 3.2841C106.947 3.34405 106.959 3.39956 106.995 3.44841L107.386 4.01572C107.43 4.07567 107.493 4.10786 107.569 4.10786C107.615 4.10786 107.658 4.09343 107.696 4.06679C107.746 4.03126 107.777 3.98352 107.787 3.92246C107.794 3.86362 107.784 3.80811 107.749 3.75482L107.364 3.19417Z" fill="white"/>
<path fill-rule="evenodd" clip-rule="evenodd" d="M107.751 1.75597C107.688 1.65383 107.612 1.56723 107.517 1.4984C107.427 1.42957 107.325 1.37739 107.213 1.34186C107.103 1.30634 106.99 1.28857 106.881 1.28857H105.864C105.862 1.28857 105.861 1.28968 105.861 1.28968L105.858 1.29079C105.797 1.2919 105.745 1.313 105.704 1.35408C105.697 1.36074 105.693 1.36851 105.688 1.37628C105.657 1.41514 105.639 1.45954 105.639 1.51061V3.86979C105.639 3.92974 105.66 3.98414 105.704 4.02632C105.746 4.06851 105.799 4.09072 105.864 4.09072C105.924 4.09072 105.979 4.06851 106.02 4.02632C106.064 3.98414 106.085 3.93085 106.085 3.86979V1.73709H106.881C107.206 1.73709 107.417 1.90473 107.417 2.16674C107.417 2.40876 107.195 2.59195 106.901 2.59195H106.409C106.348 2.59195 106.295 2.61526 106.252 2.65745C106.206 2.70075 106.184 2.75515 106.184 2.81732C106.184 2.87838 106.206 2.93389 106.251 2.97608C106.295 3.01937 106.347 3.04158 106.409 3.04158H106.901C107.019 3.04158 107.133 3.02048 107.242 2.9783C107.349 2.935 107.447 2.87949 107.533 2.80955C107.619 2.73849 107.692 2.65412 107.749 2.55864C107.804 2.46539 107.842 2.36325 107.859 2.25334C107.863 2.21559 107.865 2.14232 107.863 2.11123C107.851 1.9769 107.813 1.85811 107.751 1.75597Z" fill="white"/>
<path fill-rule="evenodd" clip-rule="evenodd" d="M80.6018 0.916856C80.2375 0.651518 79.8366 0.534947 79.3981 0.569363C78.9574 0.60489 78.592 0.802505 78.2985 1.16332L69.7896 9.57752C69.4972 9.93944 69.3677 10.3402 69.402 10.7799C69.4363 11.2206 69.6357 11.5737 70 11.8401C70.2536 12.0666 70.5337 12.1965 70.8394 12.2298C71.393 12.2931 71.8792 12.0954 72.2955 11.6347L77.9375 6.05597V23.6015C77.9375 24.0778 78.0892 24.4697 78.3971 24.7761C78.7038 25.0848 79.0947 25.238 79.5686 25.238C80.0149 25.238 80.3914 25.0848 80.6993 24.7761C81.0071 24.4697 81.1599 24.0778 81.1599 23.6015V2.47113C81.1887 2.3257 81.2053 2.17471 81.192 2.01928C81.1577 1.57853 80.9606 1.21106 80.6018 0.916856Z" fill="white"/>
<path fill-rule="evenodd" clip-rule="evenodd" d="M57.48 1.21328C57.2973 0.987907 57.0813 0.833589 56.8433 0.735891C56.8333 0.731451 56.8244 0.72812 56.8167 0.7259C56.7392 0.695924 56.6572 0.6715 56.5742 0.654847C56.5454 0.648186 56.5133 0.642635 56.4834 0.638194C56.4479 0.633753 56.4158 0.621541 56.3804 0.619321C56.3483 0.6171 56.3173 0.621541 56.2852 0.619321C56.2608 0.619321 56.2386 0.61377 56.2121 0.61377C56.18 0.61377 56.1512 0.619321 56.1213 0.621541C56.0847 0.623761 56.0493 0.625982 56.0139 0.630422C55.6296 0.669279 55.3018 0.812495 55.0405 1.07561C54.9342 1.18108 54.8556 1.29987 54.7858 1.42532C54.7681 1.4553 54.7526 1.4875 54.7371 1.51858C54.7149 1.56743 54.6939 1.6185 54.6751 1.67179C54.654 1.73174 54.6374 1.7928 54.6241 1.85608C54.6164 1.89272 54.6097 1.92825 54.6042 1.96599C54.5998 2.00041 54.5887 2.0326 54.5865 2.06813C54.5831 2.10144 54.5887 2.13363 54.5887 2.16694C54.5865 2.19469 54.5809 2.22134 54.5809 2.2502V23.6015C54.5809 24.0778 54.7326 24.4697 55.0405 24.7761C55.3472 25.0848 55.737 25.238 56.2121 25.238C56.6572 25.238 57.0348 25.0848 57.3427 24.7761C57.6483 24.4697 57.8022 24.0778 57.8022 23.6015V6.09482L66.3344 14.61C66.7519 15.0697 67.238 15.2684 67.7906 15.2062C68.0973 15.1718 68.3775 15.0419 68.6322 14.8154C68.9954 14.549 69.1947 14.1959 69.2291 13.7563C69.2634 13.3156 69.1338 12.9148 68.8404 12.554L57.48 1.21328Z" fill="white"/>
<path fill-rule="evenodd" clip-rule="evenodd" d="M106.533 23.0872C106.533 23.0872 97.417 1.6093 97.3462 1.47275C97.1513 1.08862 96.8368 0.831056 96.4027 0.701162C95.9753 0.596804 95.57 0.643432 95.1879 0.838827C94.8037 1.03533 94.5468 1.35174 94.4194 1.78694L89.1318 14.209C89.0011 14.6441 89.0343 15.0538 89.2303 15.4379C89.4264 15.8221 89.7364 16.0663 90.1627 16.1707C90.4772 16.2784 90.7795 16.2906 91.0675 16.2062C91.5901 16.0552 91.9545 15.6944 92.1593 15.1238L95.9221 5.95129L103.626 24.2962C103.803 24.7248 104.088 25.0212 104.48 25.1822C104.872 25.3454 105.28 25.3376 105.709 25.16C106.111 24.9923 106.393 24.7125 106.555 24.3195C106.718 23.9276 106.709 23.518 106.533 23.0872Z" fill="white"/>
<path fill-rule="evenodd" clip-rule="evenodd" d="M98.1665 17.5002H88.6908C88.0087 17.5002 87.5326 17.8155 87.2601 18.4428L85.2791 23.0868C85.1163 23.4698 85.1085 23.865 85.2591 24.2758C85.4098 24.6843 85.6877 24.9852 86.0963 25.175C86.2879 25.2583 86.5049 25.2994 86.7508 25.2994C87.0497 25.2994 87.3288 25.2172 87.589 25.054C87.847 24.8886 88.0453 24.6577 88.1804 24.3579L89.8037 20.6554H98.1665C98.6294 20.6554 99.0103 20.5056 99.3104 20.2058C99.6094 19.9038 99.76 19.5219 99.76 19.0579C99.76 18.6204 99.6094 18.2518 99.3104 17.9521C99.0103 17.6512 98.6294 17.5002 98.1665 17.5002Z" fill="white"/>
<path fill-rule="evenodd" clip-rule="evenodd" d="M48.9801 5.12338C48.3068 4.19303 46.9038 4.27962 46.349 5.28768C46.0589 5.81503 46.0976 6.45672 46.4365 6.95409C46.7155 7.36376 46.9569 7.8034 47.1607 8.27412C47.5793 9.24665 47.7886 10.2947 47.7886 11.4204V11.6369V13.3222V14.3158C47.7886 15.4416 47.5793 16.4907 47.1607 17.4621C46.7432 18.4324 46.1641 19.2784 45.4243 19.9956C44.6868 20.7139 43.8187 21.2779 42.8287 21.6853C41.8398 22.095 40.7712 22.2981 39.6284 22.2981C38.4845 22.2981 37.4104 22.095 36.406 21.6853C36.2089 21.6054 36.0173 21.5188 35.8302 21.4266C35.0351 21.0325 34.0773 21.3023 33.6476 22.0828C33.2013 22.8954 33.5003 23.9301 34.3231 24.3509C34.5866 24.4852 34.8579 24.6107 35.137 24.7273C36.53 25.3035 38.0194 25.5943 39.6074 25.5943C41.1953 25.5943 42.6836 25.3035 44.0778 24.7273C45.4686 24.15 46.6801 23.3551 47.711 22.3403C48.7409 21.3267 49.5492 20.1299 50.1339 18.75C50.7175 17.3711 51.011 15.8923 51.011 14.3158V13.3222V11.6369V11.4204C51.011 9.84505 50.7175 8.37293 50.1339 7.00627C49.9025 6.4645 49.4485 5.76951 48.9801 5.12338Z" fill="white"/>
<path fill-rule="evenodd" clip-rule="evenodd" d="M31.8133 17.4998C31.3947 16.5272 31.1854 15.4781 31.1854 14.3524V14.1359V12.4517V11.4581C31.1854 10.3323 31.3947 9.28318 31.8133 8.31176C32.2319 7.34034 32.811 6.49547 33.5507 5.77718C34.2882 5.05888 35.1542 4.49601 36.1442 4.08745C37.1353 3.6789 38.2016 3.47462 39.3455 3.47462C40.4906 3.47462 41.5647 3.6789 42.5668 4.08745C42.7651 4.16739 42.9566 4.25509 43.1449 4.34724C43.9389 4.74136 44.8967 4.47158 45.3275 3.69C45.7738 2.87734 45.4726 1.84263 44.6509 1.42298C44.3873 1.28753 44.116 1.16208 43.837 1.04662C42.445 0.469316 40.9545 0.180664 39.3666 0.180664C37.7797 0.180664 36.2915 0.469316 34.8973 1.04662C33.5053 1.62281 32.2939 2.41993 31.2629 3.43244C30.2342 4.44716 29.4247 5.64284 28.84 7.02282C28.2565 8.4028 27.963 9.88158 27.963 11.4581V12.4517V14.1359V14.3524C27.963 15.9288 28.2565 17.401 28.84 18.7665C29.0726 19.3083 29.5255 20.0033 29.9939 20.6494C30.6683 21.5809 32.0702 21.4931 32.625 20.4851C32.9151 19.9577 32.8753 19.316 32.5375 18.8198C32.2573 18.409 32.0159 17.9705 31.8133 17.4998Z" fill="white"/>
<path fill-rule="evenodd" clip-rule="evenodd" d="M4.07667 16.6975C3.61822 15.5617 3.39565 14.3228 3.41558 13.016L3.42001 12.7674C3.45655 11.5173 3.71457 10.3405 4.18519 9.26358C4.67575 8.1445 5.35678 7.15975 6.20723 6.33931C7.05657 5.51888 8.06094 4.87163 9.19156 4.41534C10.2701 3.97903 11.4694 3.75699 12.7561 3.75699C15.1945 3.75699 16.9575 4.4986 18.4779 5.78755C18.7802 6.04178 19.1733 6.18833 19.5996 6.18833C20.5863 6.18833 21.3858 5.38676 21.3858 4.39758C21.3858 4.01789 21.2662 3.66818 21.0658 3.3773C20.9871 3.2463 20.8853 3.11308 20.7524 2.98096C19.8399 2.06394 18.4003 1.37895 16.953 0.915993C15.4083 0.421955 13.8535 0.179932 12.9234 0.179932C11.146 0.179932 9.47615 0.459702 7.91809 1.09252C6.36447 1.722 4.98581 2.61793 3.82087 3.75477C2.65815 4.89273 1.72797 6.25827 1.05691 7.81477C0.384741 9.37238 0.0303866 11.0721 0.00381002 12.8662V12.8684L0.0015953 12.9628C-0.0249813 14.7557 0.280649 16.4588 0.907414 18.0219C1.12335 18.5593 1.54414 19.2898 2.16205 20.1913C2.48983 20.6686 3.0269 20.9406 3.58833 20.9118C4.15529 20.884 4.66357 20.5654 4.94705 20.0569C5.26044 19.4929 5.23386 18.8013 4.87951 18.2495C4.56723 17.7644 4.29704 17.2426 4.07667 16.6975Z" fill="white"/>
<path fill-rule="evenodd" clip-rule="evenodd" d="M23.07 10.8076H12.7472C12.2688 10.8076 11.8757 10.9708 11.5457 11.3061C11.2179 11.6403 11.0585 12.0555 11.0585 12.5784C11.0585 13.068 11.2179 13.4677 11.5457 13.8018C11.8746 14.136 12.2688 14.2992 12.7472 14.2992H21.2716L21.2517 14.4258C21.131 15.1785 20.9339 15.8812 20.6637 16.514C20.1886 17.6253 19.5231 18.6057 18.686 19.4272C17.8455 20.2499 16.8522 20.9027 15.7293 21.3689C14.6076 21.8352 13.3828 22.0739 12.0861 22.0739C10.7894 22.0739 9.55469 21.8352 8.41744 21.3689C8.19375 21.2779 7.97339 21.1769 7.76188 21.0725C7.50387 20.9404 7.22814 20.8793 6.96016 20.8793C6.34447 20.8793 5.75646 21.2024 5.4464 21.7731C5.21385 22.1971 5.16291 22.689 5.30244 23.1541C5.43975 23.6115 5.74538 23.9823 6.16064 24.1977C6.45963 24.3509 6.76637 24.493 7.06978 24.6196C8.61787 25.268 10.2977 25.5955 12.0618 25.5955C13.8258 25.5955 15.5034 25.268 17.0526 24.6196C18.5974 23.9746 19.9627 23.0709 21.11 21.9329C22.2572 20.795 23.1663 19.435 23.8141 17.8907C24.4642 16.3442 24.7919 14.6633 24.7919 12.897L24.7853 12.5529C24.7853 11.5914 24.0157 10.8076 23.07 10.8076Z" fill="white"/>
<path fill-rule="evenodd" clip-rule="evenodd" d="M71.0726 32.5114C70.7348 32.175 70.3306 32.0129 69.839 32.0129H38.3893C37.8988 32.0129 37.4946 32.175 37.1568 32.5114C36.8191 32.8456 36.6552 33.2608 36.6552 33.7826C36.6552 34.2733 36.8191 34.673 37.1568 35.0071C37.4935 35.3413 37.8977 35.5056 38.3893 35.5056H69.839C70.3306 35.5056 70.7348 35.3413 71.0726 35.0071C71.4092 34.673 71.5742 34.2567 71.5742 33.7337C71.5742 33.2441 71.4092 32.8445 71.0726 32.5114Z" fill="white"/>
<path fill-rule="evenodd" clip-rule="evenodd" d="M93.7406 32.3992C93.3686 32.0651 92.9256 31.9019 92.3841 31.9019H76.5186C75.9782 31.9019 75.5352 32.0651 75.1632 32.4003C74.7922 32.7334 74.6117 33.1497 74.6117 33.6715C74.6117 34.1622 74.7922 34.5619 75.1632 34.8949C75.5352 35.2302 75.9771 35.3923 76.5186 35.3923H92.3841C92.9245 35.3923 93.3686 35.2302 93.7406 34.8949C94.1105 34.5608 94.291 34.1456 94.291 33.6227C94.291 33.1331 94.1105 32.7334 93.7406 32.3992Z" fill="white"/>
<path fill-rule="evenodd" clip-rule="evenodd" d="M106.206 32.3798C105.877 32.0434 105.485 31.8813 105.005 31.8813H98.8585C98.379 31.8813 97.9859 32.0434 97.6559 32.3798C97.3282 32.714 97.1687 33.1292 97.1687 33.651C97.1687 34.1417 97.3282 34.5414 97.6559 34.8756C97.9859 35.2097 98.3779 35.374 98.8585 35.374H105.005C105.484 35.374 105.877 35.2097 106.206 34.8756C106.535 34.5414 106.694 34.1251 106.694 33.6022C106.694 33.1126 106.535 32.7129 106.206 32.3798Z" fill="white"/>
<path d="M28.5215 31.3687C28.7578 31.3687 28.9775 31.4095 29.1808 31.4913C29.3841 31.5675 29.56 31.6683 29.7083 31.7937C29.8622 31.919 29.9803 32.0498 30.0627 32.186C30.1507 32.3222 30.1946 32.4503 30.1946 32.5701L30.038 32.4721V31.761C30.038 31.6683 30.0682 31.5921 30.1287 31.5321C30.1891 31.4667 30.2688 31.434 30.3677 31.434C30.4611 31.434 30.538 31.4667 30.5985 31.5321C30.6644 31.5921 30.6974 31.6683 30.6974 31.761V35.3409C30.6974 35.7877 30.6012 36.1582 30.4089 36.4525C30.2221 36.7467 29.9693 36.9674 29.6506 37.1145C29.3319 37.2616 28.9748 37.3352 28.5792 37.3352C28.4143 37.3352 28.233 37.3134 28.0352 37.2698C27.8374 37.2262 27.6616 37.1717 27.5077 37.1063C27.3539 37.0464 27.255 36.9837 27.211 36.9183C27.1286 36.8638 27.0764 36.8012 27.0544 36.7304C27.0379 36.665 27.0517 36.6023 27.0956 36.5424C27.1451 36.4661 27.2083 36.4279 27.2852 36.4279C27.3676 36.4279 27.4693 36.4525 27.5901 36.5015C27.6396 36.5178 27.7165 36.5451 27.8209 36.5832C27.9308 36.6214 28.0517 36.6541 28.1836 36.6813C28.3209 36.714 28.4555 36.7304 28.5874 36.7304C29.0545 36.7304 29.4116 36.6078 29.6589 36.3626C29.9116 36.1228 30.038 35.804 30.038 35.4063V34.6462L30.1287 34.687C30.0957 34.8396 30.027 34.9813 29.9226 35.112C29.8237 35.2428 29.7001 35.36 29.5517 35.4635C29.4089 35.5616 29.2495 35.6406 29.0737 35.7005C28.8979 35.755 28.7193 35.7822 28.538 35.7822C28.1533 35.7822 27.8072 35.6869 27.4995 35.4962C27.1918 35.3055 26.9473 35.0439 26.7659 34.7115C26.5901 34.3792 26.5022 34.0005 26.5022 33.5754C26.5022 33.145 26.5901 32.7636 26.7659 32.4312C26.9473 32.0988 27.189 31.84 27.4912 31.6547C27.7989 31.464 28.1424 31.3687 28.5215 31.3687ZM28.6039 31.9735C28.3237 31.9735 28.0709 32.0443 27.8456 32.186C27.6259 32.3222 27.4528 32.5102 27.3264 32.7499C27.2055 32.9897 27.1451 33.2649 27.1451 33.5754C27.1451 33.8751 27.2055 34.1476 27.3264 34.3928C27.4528 34.6325 27.6259 34.8232 27.8456 34.9649C28.0709 35.1066 28.3237 35.1774 28.6039 35.1774C28.8896 35.1774 29.1424 35.1093 29.3622 34.9731C29.582 34.8314 29.755 34.6407 29.8814 34.401C30.0078 34.1612 30.071 33.886 30.071 33.5754C30.071 33.2594 30.0078 32.9815 29.8814 32.7418C29.755 32.502 29.582 32.314 29.3622 32.1778C29.1424 32.0416 28.8896 31.9735 28.6039 31.9735Z" fill="white"/>
<path d="M24.038 31.3687C24.4116 31.3687 24.7056 31.4449 24.9199 31.5975C25.1342 31.7501 25.2853 31.9544 25.3732 32.2105C25.4666 32.4666 25.5133 32.7527 25.5133 33.0687V35.3654C25.5133 35.458 25.4803 35.537 25.4144 35.6024C25.354 35.6678 25.277 35.7005 25.1836 35.7005C25.0902 35.7005 25.0105 35.6678 24.9446 35.6024C24.8842 35.537 24.854 35.458 24.854 35.3654V33.085C24.854 32.878 24.821 32.6927 24.755 32.5293C24.6946 32.3603 24.5902 32.2269 24.4419 32.1288C24.299 32.0252 24.1012 31.9735 23.8484 31.9735C23.6177 31.9735 23.4061 32.0252 23.2138 32.1288C23.0215 32.2269 22.8676 32.3603 22.7522 32.5293C22.6369 32.6927 22.5792 32.878 22.5792 33.085V35.3654C22.5792 35.458 22.5462 35.537 22.4803 35.6024C22.4198 35.6678 22.3429 35.7005 22.2495 35.7005C22.1561 35.7005 22.0764 35.6678 22.0105 35.6024C21.95 35.537 21.9198 35.458 21.9198 35.3654V31.8018C21.9198 31.7092 21.95 31.6329 22.0105 31.573C22.0764 31.5076 22.1561 31.4749 22.2495 31.4749C22.3484 31.4749 22.4281 31.5076 22.4885 31.573C22.5489 31.6329 22.5792 31.7092 22.5792 31.8018V32.3821L22.4143 32.562C22.4418 32.4203 22.505 32.2786 22.6039 32.1369C22.7028 31.9898 22.8264 31.8591 22.9748 31.7446C23.1231 31.6302 23.288 31.5403 23.4693 31.4749C23.6506 31.4041 23.8402 31.3687 24.038 31.3687Z" fill="white"/>
<path d="M20.7354 35.3653C20.7354 35.4579 20.7024 35.5369 20.6365 35.6023C20.576 35.6677 20.4991 35.7004 20.4057 35.7004C20.3068 35.7004 20.2271 35.6677 20.1667 35.6023C20.1062 35.5369 20.076 35.4579 20.076 35.3653V31.7363C20.076 31.6437 20.1062 31.5674 20.1667 31.5075C20.2326 31.4421 20.3123 31.4094 20.4057 31.4094C20.4991 31.4094 20.576 31.4421 20.6365 31.5075C20.7024 31.5674 20.7354 31.6437 20.7354 31.7363V35.3653ZM20.4057 30.8618C20.2683 30.8618 20.1667 30.8345 20.1007 30.7801C20.0348 30.7256 20.0018 30.6411 20.0018 30.5267V30.4123C20.0018 30.2978 20.0375 30.2134 20.109 30.1589C20.1804 30.1044 20.2821 30.0771 20.4139 30.0771C20.5458 30.0771 20.6447 30.1044 20.7106 30.1589C20.7766 30.2134 20.8095 30.2978 20.8095 30.4123V30.5267C20.8095 30.6411 20.7738 30.7256 20.7024 30.7801C20.6365 30.8345 20.5376 30.8618 20.4057 30.8618Z" fill="white"/>
<path d="M14.5867 31.4094C14.9603 31.4094 15.2625 31.5048 15.4933 31.6955C15.7296 31.8808 15.8862 32.145 15.9631 32.4883H15.8395L15.8972 32.3412C15.9631 32.1886 16.0757 32.0415 16.2351 31.8998C16.3944 31.7582 16.5785 31.641 16.7873 31.5484C16.9961 31.4557 17.2131 31.4094 17.4384 31.4094C17.8011 31.4094 18.0868 31.4884 18.2956 31.6465C18.5044 31.799 18.6527 32.0061 18.7406 32.2676C18.834 32.5237 18.8808 32.8125 18.8808 33.134V35.3653C18.8808 35.4579 18.8478 35.537 18.7818 35.6023C18.7214 35.6677 18.6445 35.7004 18.5511 35.7004C18.4522 35.7004 18.3725 35.6677 18.3121 35.6023C18.2516 35.537 18.2214 35.4579 18.2214 35.3653V33.1503C18.2214 32.9378 18.1884 32.7471 18.1225 32.5782C18.062 32.4038 17.9604 32.2676 17.8175 32.1695C17.6802 32.066 17.4906 32.0142 17.2488 32.0142C17.0236 32.0142 16.8175 32.066 16.6307 32.1695C16.4439 32.2676 16.2955 32.4038 16.1856 32.5782C16.0757 32.7471 16.0208 32.9378 16.0208 33.1503V35.3653C16.0208 35.4579 15.9906 35.537 15.9301 35.6023C15.8697 35.6677 15.79 35.7004 15.6911 35.7004C15.5977 35.7004 15.518 35.6677 15.4521 35.6023C15.3916 35.537 15.3614 35.4579 15.3614 35.3653V33.1258C15.3614 32.9188 15.3312 32.7335 15.2708 32.57C15.2158 32.4011 15.1197 32.2676 14.9823 32.1695C14.8449 32.066 14.6554 32.0142 14.4136 32.0142C14.1938 32.0142 13.9933 32.066 13.8119 32.1695C13.6306 32.2676 13.485 32.4011 13.3751 32.57C13.2652 32.7335 13.2103 32.9188 13.2103 33.1258V35.3653C13.2103 35.4579 13.1773 35.537 13.1114 35.6023C13.0509 35.6677 12.974 35.7004 12.8806 35.7004C12.7872 35.7004 12.7075 35.6677 12.6416 35.6023C12.5811 35.537 12.5509 35.4579 12.5509 35.3653V31.8017C12.5509 31.7091 12.5811 31.6328 12.6416 31.5729C12.7075 31.5075 12.7872 31.4748 12.8806 31.4748C12.9795 31.4748 13.0592 31.5075 13.1196 31.5729C13.18 31.6328 13.2103 31.7091 13.2103 31.8017V32.4229L13.0289 32.6191C13.0509 32.4774 13.1059 32.3357 13.1938 32.1941C13.2872 32.0524 13.4053 31.9216 13.5482 31.8017C13.691 31.6819 13.8504 31.5865 14.0262 31.5157C14.202 31.4448 14.3889 31.4094 14.5867 31.4094Z" fill="white"/>
<path d="M10.9993 31.434C11.0927 31.434 11.1696 31.4667 11.2301 31.5321C11.296 31.5921 11.329 31.6683 11.329 31.761V35.3654C11.329 35.458 11.296 35.537 11.2301 35.6024C11.1696 35.6678 11.0927 35.7005 10.9993 35.7005C10.9004 35.7005 10.8207 35.6678 10.7603 35.6024C10.6998 35.537 10.6696 35.458 10.6696 35.3654V34.5889L10.8262 34.5726C10.8262 34.6925 10.785 34.8232 10.7026 34.9649C10.6202 35.1066 10.5075 35.2401 10.3647 35.3654C10.2218 35.4853 10.0515 35.5861 9.85367 35.6678C9.66136 35.7441 9.45256 35.7822 9.22728 35.7822C8.85364 35.7822 8.51847 35.6869 8.22176 35.4962C7.92505 35.3 7.68878 35.0358 7.51295 34.7034C7.34261 34.371 7.25745 33.9923 7.25745 33.5673C7.25745 33.1368 7.34261 32.7581 7.51295 32.4312C7.68878 32.0988 7.92505 31.84 8.22176 31.6547C8.51847 31.464 8.84815 31.3687 9.2108 31.3687C9.44707 31.3687 9.66685 31.4068 9.87016 31.4831C10.0735 31.5594 10.2493 31.6629 10.3976 31.7937C10.5515 31.9244 10.6696 32.0688 10.752 32.2269C10.84 32.3849 10.8839 32.5429 10.8839 32.7009L10.6696 32.6519V31.761C10.6696 31.6683 10.6998 31.5921 10.7603 31.5321C10.8207 31.4667 10.9004 31.434 10.9993 31.434ZM9.30146 35.1774C9.57619 35.1774 9.81796 35.1066 10.0268 34.9649C10.241 34.8232 10.4059 34.6325 10.5213 34.3928C10.6422 34.1476 10.7026 33.8724 10.7026 33.5673C10.7026 33.2676 10.6422 32.9979 10.5213 32.7581C10.4059 32.5129 10.241 32.3222 10.0268 32.186C9.81796 32.0443 9.57619 31.9735 9.30146 31.9735C9.03222 31.9735 8.79046 32.0416 8.57616 32.1778C8.36737 32.314 8.20253 32.502 8.08164 32.7418C7.96076 32.9815 7.90032 33.2567 7.90032 33.5673C7.90032 33.8724 7.95802 34.1476 8.0734 34.3928C8.19429 34.6325 8.35913 34.8232 8.56792 34.9649C8.78221 35.1066 9.02673 35.1774 9.30146 35.1774Z" fill="white"/>
<path d="M4.13355 31.3687C4.36982 31.3687 4.5896 31.4095 4.7929 31.4913C4.99621 31.5675 5.17204 31.6683 5.32039 31.7937C5.47424 31.919 5.59238 32.0498 5.6748 32.186C5.76271 32.3222 5.80667 32.4503 5.80667 32.5701L5.65007 32.4721V31.761C5.65007 31.6683 5.68029 31.5921 5.74073 31.5321C5.80117 31.4667 5.88085 31.434 5.97975 31.434C6.07316 31.434 6.15009 31.4667 6.21053 31.5321C6.27646 31.5921 6.30943 31.6683 6.30943 31.761V35.3409C6.30943 35.7877 6.21327 36.1582 6.02096 36.4525C5.83414 36.7467 5.58139 36.9674 5.2627 37.1145C4.94401 37.2616 4.58685 37.3352 4.19124 37.3352C4.0264 37.3352 3.84508 37.3134 3.64727 37.2698C3.44946 37.2262 3.27363 37.1717 3.11978 37.1063C2.96593 37.0464 2.86703 36.9837 2.82307 36.9183C2.74065 36.8638 2.68845 36.8012 2.66647 36.7304C2.64999 36.665 2.66372 36.6023 2.70768 36.5424C2.75713 36.4661 2.82032 36.4279 2.89725 36.4279C2.97967 36.4279 3.08132 36.4525 3.2022 36.5015C3.25165 36.5178 3.32858 36.5451 3.43298 36.5832C3.54287 36.6214 3.66375 36.6541 3.79562 36.6813C3.93299 36.714 4.06761 36.7304 4.19948 36.7304C4.66653 36.7304 5.02368 36.6078 5.27094 36.3626C5.52369 36.1228 5.65007 35.804 5.65007 35.4063V34.6462L5.74073 34.687C5.70777 34.8396 5.63908 34.9813 5.53468 35.112C5.43578 35.2428 5.31215 35.36 5.16379 35.4635C5.02093 35.5616 4.86159 35.6406 4.68576 35.7005C4.50993 35.755 4.33135 35.7822 4.15003 35.7822C3.7654 35.7822 3.41924 35.6869 3.11154 35.4962C2.80384 35.3055 2.55933 35.0439 2.378 34.7115C2.20217 34.3792 2.11426 34.0005 2.11426 33.5754C2.11426 33.145 2.20217 32.7636 2.378 32.4312C2.55933 32.0988 2.80109 31.84 3.1033 31.6547C3.411 31.464 3.75441 31.3687 4.13355 31.3687ZM4.21597 31.9735C3.93574 31.9735 3.68298 32.0443 3.4577 32.186C3.23792 32.3222 3.06483 32.5102 2.93846 32.7499C2.81757 32.9897 2.75713 33.2649 2.75713 33.5754C2.75713 33.8751 2.81757 34.1476 2.93846 34.3928C3.06483 34.6325 3.23792 34.8232 3.4577 34.9649C3.68298 35.1066 3.93574 35.1774 4.21597 35.1774C4.50169 35.1774 4.75444 35.1093 4.97423 34.9731C5.19401 34.8314 5.3671 34.6407 5.49347 34.401C5.61985 34.1612 5.68304 33.886 5.68304 33.5754C5.68304 33.2594 5.61985 32.9815 5.49347 32.7418C5.3671 32.502 5.19401 32.314 4.97423 32.1778C4.75444 32.0416 4.50169 31.9735 4.21597 31.9735Z" fill="white"/>
</svg>
